<svg width="1920" height="1080" viewBox="0 0 1920 1080" xmlns="http://www.w3.org/2000/svg">
  <defs>
    <linearGradient id="productionGradient" x1="0%" y1="0%" x2="100%" y2="100%">
      <stop offset="0%" style="stop-color:#f0f9ff;stop-opacity:1" />
      <stop offset="100%" style="stop-color:#e0f2fe;stop-opacity:1" />
    </linearGradient>
    <pattern id="diamondPattern" x="0" y="0" width="40" height="40" patternUnits="userSpaceOnUse">
      <rect width="40" height="40" fill="none"/>
      <rect x="20" y="0" width="20" height="20" fill="#0ea5e9" opacity="0.1"/>
      <rect x="0" y="20" width="20" height="20" fill="#0ea5e9" opacity="0.1"/>
    </pattern>
  </defs>
  
  <!-- Background -->
  <rect width="1920" height="1080" fill="url(#productionGradient)"/>
  
  <!-- Manufacturing Equipment -->
  <!-- Tablet Press -->
  <rect x="200" y="200" width="300" height="200" fill="#ffffff" rx="20" opacity="0.9"/>
  <rect x="220" y="220" width="260" height="160" fill="#f8fafc" rx="10"/>
  <circle cx="340" cy="300" r="40" fill="#0ea5e9" opacity="0.3"/>
  <rect x="320" y="280" width="40" height="40" fill="#1e3a8a" opacity="0.4"/>
  
  <!-- Capsule Filling Machine -->
  <rect x="600" y="300" width="250" height="280" fill="#ffffff" rx="15" opacity="0.9"/>
  <rect x="620" y="320" width="210" height="240" fill="#f1f5f9" rx="10"/>
  <rect x="650" y="400" width="150" height="80" fill="#0d9488" opacity="0.2"/>
  <circle cx="725" cy="440" r="15" fill="#0d9488" opacity="0.5"/>
  
  <!-- Quality Control Station -->
  <rect x="1000" y="250" width="200" height="150" fill="#ffffff" rx="10" opacity="0.95"/>
  <rect x="1020" y="270" width="160" height="110" fill="#f8fafc" rx="5"/>
  <circle cx="1100" cy="325" r="20" fill="#7c3aed" opacity="0.4"/>
  <rect x="1080" y="345" width="40" height="25" fill="#1e3a8a" opacity="0.3"/>
  
  <!-- Packaging Line -->
  <rect x="1300" y="150" width="400" height="400" fill="#ffffff" rx="20" opacity="0.9"/>
  <rect x="1320" y="170" width="360" height="360" fill="#f0f9ff" rx="15"/>
  
  <!-- Conveyor Belt -->
  <rect x="1320" y="300" width="360" height="20" fill="#64748b" opacity="0.6"/>
  <rect x="1320" y="350" width="360" height="20" fill="#64748b" opacity="0.6"/>
  <rect x="1320" y="400" width="360" height="20" fill="#64748b" opacity="0.6"/>
  
  <!-- Product Samples -->
  <rect x="1400" y="150" width="20" height="40" fill="#0ea5e9" opacity="0.8"/>
  <rect x="1440" y="140" width="20" height="50" fill="#0ea5e9" opacity="0.8"/>
  <rect x="1480" y="145" width="20" height="45" fill="#0ea5e9" opacity="0.8"/>
  
  <!-- Pharmaceutical Containers -->
  <rect x="200" y="450" width="60" height="100" fill="#f8fafc" rx="10"/>
  <rect x="210" y="490" width="40" height="60" fill="#0ea5e9" opacity="0.2"/>
  
  <rect x="280" y="420" width="60" height="130" fill="#f8fafc" rx="10"/>
  <rect x="290" y="460" width="40" height="90" fill="#0d9488" opacity="0.2"/>
  
  <!-- Stainless Steel Framework -->
  <rect x="100" y="100" width="1600" height="20" fill="#94a3b8" opacity="0.3"/>
  <rect x="100" y="120" width="20" height="260" fill="#94a3b8" opacity="0.3"/>
  <rect x="1680" y="120" width="20" height="260" fill="#94a3b8" opacity="0.3"/>
  
  <!-- Control Panels -->
  <rect x="800" y="120" width="120" height="80" fill="#1e293b" rx="5"/>
  <rect x="820" y="140" width="80" height="40" fill="#64748b"/>
  <circle cx="850" cy="160" r="8" fill="#0ea5e9" opacity="0.8"/>
  <circle cx="870" cy="160" r="8" fill="#059669" opacity="0.8"/>
  
  <!-- Floor -->
  <rect x="0" y="800" width="1920" height="280" fill="#475569" opacity="0.1"/>
  <rect x="0" y="820" width="1920" height="20" fill="#374151" opacity="0.2"/>
  
  <!-- Overhead Lighting -->
  <rect x="300" y="50" width="40" height="200" fill="#94a3b8" opacity="0.1"/>
  <rect x="310" y="45" width="20" height="10" fill="#fbbf24" opacity="0.3"/>
  <rect x="320" y="40" width="10" height="20" fill="#fbbf24" opacity="0.4"/>
  
  <rect x="800" y="50" width="40" height="200" fill="#94a3b8" opacity="0.1"/>
  <rect x="810" y="45" width="20" height="10" fill="#fbbf24" opacity="0.3"/>
  <rect x="820" y="40" width="10" height="20" fill="#fbbf24" opacity="0.4"/>
  
  <rect x="1300" y="50" width="40" height="200" fill="#94a3b8" opacity="0.1"/>
  <rect x="1310" y="45" width="20" height="10" fill="#fbbf24" opacity="0.3"/>
      <rect x="1320" y="40" width="10" height="20" fill="#fbbf24" opacity="0.4"/>
</svg>
